<?xml version="1.0" encoding="UTF-8"?><svg id="Layer_1" xmlns="http://www.w3.org/2000/svg" xmlns:xlink="http://www.w3.org/1999/xlink" viewBox="0 0 795.89 229.29"><defs><style>.cls-1{fill:#fff;}.cls-2{fill:url(#linear-gradient-17);}.cls-3{fill:url(#linear-gradient-15);}.cls-4{stroke:url(#linear-gradient-3);}.cls-4,.cls-5,.cls-6,.cls-7,.cls-8,.cls-9{fill:none;stroke-miterlimit:10;stroke-width:4.17px;}.cls-10{fill:url(#linear-gradient-14);}.cls-11{fill:url(#linear-gradient-18);filter:url(#drop-shadow-1);}.cls-5{stroke:url(#linear-gradient-5);}.cls-6{stroke:url(#linear-gradient-2);}.cls-12{fill:url(#linear-gradient-11);}.cls-7{stroke:url(#linear-gradient);}.cls-13{fill:url(#linear-gradient-10);}.cls-14{fill:url(#linear-gradient-16);}.cls-15{fill:url(#linear-gradient-7);}.cls-16{fill:url(#linear-gradient-9);}.cls-8{stroke:url(#linear-gradient-4);}.cls-9{stroke:url(#linear-gradient-6);}.cls-17{fill:url(#linear-gradient-19);filter:url(#drop-shadow-2);}.cls-18{fill:url(#linear-gradient-8);}.cls-19{fill:url(#linear-gradient-12);}.cls-20{fill:url(#linear-gradient-13);}</style><linearGradient id="linear-gradient" x1="6400.21" y1="126.47" x2="6399.71" y2="171.7" gradientTransform="translate(6609.84) rotate(-180) scale(1 -1)" gradientUnits="userSpaceOnUse"><stop offset="0" stop-color="#f27900"/><stop offset="1" stop-color="#fddf00"/></linearGradient><linearGradient id="linear-gradient-2" x1="6394.21" y1="142.63" x2="6393.78" y2="181.55" xlink:href="#linear-gradient"/><linearGradient id="linear-gradient-3" x1="6389.61" y1="160.67" x2="6389.27" y2="191.89" xlink:href="#linear-gradient"/><linearGradient id="linear-gradient-4" x1="88.05" y1="126.47" x2="87.55" y2="171.7" gradientUnits="userSpaceOnUse"><stop offset="0" stop-color="#fddf00"/><stop offset="1" stop-color="#f27900"/></linearGradient><linearGradient id="linear-gradient-5" x1="82.05" y1="142.63" x2="81.62" y2="181.55" xlink:href="#linear-gradient-4"/><linearGradient id="linear-gradient-6" x1="77.45" y1="160.67" x2="77.11" y2="191.89" xlink:href="#linear-gradient-4"/><linearGradient id="linear-gradient-7" x1="6.52" y1="196.61" x2="291.16" y2="196.61" gradientTransform="matrix(1, 0, 0, 1, 0, 0)" xlink:href="#linear-gradient"/><linearGradient id="linear-gradient-8" x1="148.65" y1="177.32" x2="149.03" y2="221.97" gradientUnits="userSpaceOnUse"><stop offset="0" stop-color="#c2732c"/><stop offset="1" stop-color="#573600"/></linearGradient><linearGradient id="linear-gradient-9" x1="93.95" y1="25.15" x2="93.16" y2="168.24" xlink:href="#linear-gradient-4"/><linearGradient id="linear-gradient-10" x1="6460.86" y1="13.58" x2="6420.41" y2="77.69" gradientTransform="translate(6536.5) rotate(-180) scale(1 -1)" xlink:href="#linear-gradient-8"/><linearGradient id="linear-gradient-11" x1="204.63" y1="25.76" x2="203.84" y2="168.85" xlink:href="#linear-gradient-4"/><linearGradient id="linear-gradient-12" x1="222.68" y1="13.58" x2="182.23" y2="77.69" xlink:href="#linear-gradient-8"/><linearGradient id="linear-gradient-13" x1="97.23" y1="94.74" x2="131.07" y2="94.74" gradientTransform="translate(180.24 -38.08) rotate(76.76)" xlink:href="#linear-gradient-8"/><linearGradient id="linear-gradient-14" x1="166.61" y1="94.74" x2="200.45" y2="94.74" gradientTransform="translate(120.74 -102.03) rotate(45)" xlink:href="#linear-gradient-8"/><linearGradient id="linear-gradient-15" x1="136.61" y1="126.28" x2="135.32" y2="196.47" xlink:href="#linear-gradient-4"/><linearGradient id="linear-gradient-16" x1="161.46" y1="159.33" x2="160.82" y2="218.2" xlink:href="#linear-gradient-4"/><linearGradient id="linear-gradient-17" x1="10932.05" y1="11263.41" x2="10990.54" y2="11262.95" gradientTransform="translate(11495.18 -10753.3) rotate(90)" xlink:href="#linear-gradient"/><linearGradient id="linear-gradient-18" x1="340.43" y1="81.95" x2="790.27" y2="81.95" xlink:href="#linear-gradient-4"/><filter id="drop-shadow-1" filterUnits="userSpaceOnUse"><feOffset dx="2" dy="2"/><feGaussianBlur result="blur" stdDeviation="1"/><feFlood flood-color="#000" flood-opacity=".75"/><feComposite in2="blur" operator="in"/><feComposite in="SourceGraphic"/></filter><linearGradient id="linear-gradient-19" x1="340.43" y1="179.72" x2="779.44" y2="179.72" xlink:href="#linear-gradient-4"/><filter id="drop-shadow-2" filterUnits="userSpaceOnUse"><feOffset dx="2" dy="2"/><feGaussianBlur result="blur-2" stdDeviation="1"/><feFlood flood-color="#000" flood-opacity=".75"/><feComposite in2="blur-2" operator="in"/><feComposite in="SourceGraphic"/></filter></defs><g><g><path class="cls-7" d="m148.84,170.31s65.58-9.5,121.31-42.7"/><path class="cls-6" d="m148.84,180.21s68.46-2.07,133.09-36.45"/><path class="cls-4" d="m148.84,190.59s77.39-.66,142.32-28.78"/></g><g><path class="cls-8" d="m148.84,170.31s-65.58-9.5-121.31-42.7"/><path class="cls-5" d="m148.84,180.21s-68.46-2.07-133.09-36.45"/><path class="cls-9" d="m148.84,190.59s-77.4-.66-142.32-28.78"/></g><rect class="cls-15" x="6.52" y="188.21" width="284.64" height="16.8"/><polygon class="cls-18" points="297.68 193.84 0 193.84 0 206.11 124.21 206.11 124.21 215.48 173.47 215.48 173.47 206.11 297.68 206.11 297.68 193.84"/><g><path class="cls-16" d="m148.84,23.91S105.99,20.41,72.74,0c0,0,5.25,83.08-34.99,115.91,0,0,49.58,33.4,111.09,54.4V23.91Z"/><path class="cls-13" d="m148.84,94.74s7.93-37.25-32-50.29C76.92,31.4,59.13,22.31,54.79,5.31c0,0-20.67,43.61,41.67,59.59,50.89,13.04,52.38,29.84,52.38,29.84Z"/><path class="cls-12" d="m148.84,23.91s42.85-3.5,76.1-23.91c0,0-5.25,83.08,34.99,115.91,0,0-49.58,33.4-111.09,54.4V23.91Z"/><path class="cls-19" d="m149.48,94.74s-7.93-37.25,32-50.29c39.92-13.04,57.71-22.14,62.06-39.13,0,0,20.68,43.61-41.67,59.59-50.89,13.04-52.38,29.84-52.38,29.84Z"/><circle class="cls-1" cx="114.15" cy="94.74" r="34.69"/><circle class="cls-20" cx="114.15" cy="94.74" r="16.92" transform="translate(-4.2 184.17) rotate(-76.76)"/><path class="cls-1" d="m131.07,85.42c0,4.2-3.41,7.61-7.61,7.61s-7.61-3.41-7.61-7.61,3.41-7.61,7.61-7.61,7.61,3.41,7.61,7.61Z"/><circle class="cls-1" cx="183.53" cy="94.74" r="34.69"/><circle class="cls-10" cx="183.53" cy="94.74" r="16.92" transform="translate(-13.23 157.52) rotate(-45)"/><path class="cls-1" d="m200.45,85.42c0,4.2-3.41,7.61-7.61,7.61s-7.61-3.41-7.61-7.61,3.41-7.61,7.61-7.61,7.61,3.41,7.61,7.61Z"/><polygon class="cls-3" points="122.98 142.96 148.84 119.37 148.84 185.75 122.98 142.96"/><polygon class="cls-14" points="174.7 142.96 148.84 119.37 148.84 185.75 174.7 142.96"/></g><polygon class="cls-2" points="220 229.29 220 193.56 244.06 193.56 244.06 229.29 232.03 224.6 220 229.29"/></g><path class="cls-11" d="m410.18,103.17c6.8-2.94,12.05-7.24,15.75-12.89,3.7-5.65,5.55-12.43,5.55-20.33s-1.85-14.55-5.55-20.25c-3.7-5.7-8.95-10.07-15.75-13.12-6.8-3.05-14.9-4.58-24.3-4.58h-45.45v105h24.45v-29.4h21c.36,0,.72,0,1.07-.01l20.38,29.41h26.1l-23.4-33.77s.1-.04.15-.06Zm-8.85-19.72c-3.8,3.2-9.4,4.8-16.8,4.8h-19.65v-36.45h19.65c7.4,0,13,1.58,16.8,4.73,3.8,3.14,5.7,7.62,5.7,13.42s-1.9,10.3-5.7,13.5Zm106.27-23.25c-6.35-3.4-13.48-5.1-21.37-5.1s-15.58,1.78-22.13,5.32c-6.55,3.56-11.65,8.48-15.3,14.78-3.65,6.3-5.47,13.45-5.47,21.45s1.89,15.13,5.7,21.38c3.8,6.25,9.15,11.17,16.05,14.77,6.9,3.6,14.94,5.4,24.15,5.4,7.29,0,13.74-1.12,19.35-3.37,5.6-2.25,10.25-5.48,13.95-9.68l-12.45-13.5c-2.7,2.6-5.68,4.55-8.93,5.85s-6.97,1.95-11.17,1.95c-4.9,0-9.11-.87-12.6-2.62-3.51-1.75-6.26-4.28-8.25-7.58-1.11-1.82-1.9-3.82-2.4-6h61.05c.09-1,.19-2.07.3-3.22.09-1.15.15-2.18.15-3.08,0-8.7-1.86-16.15-5.55-22.35-3.71-6.2-8.73-11-15.08-14.4Zm-41.15,29.4c.38-2.52,1.13-4.79,2.23-6.82,1.69-3.16,4.07-5.6,7.12-7.36,3.05-1.74,6.57-2.62,10.58-2.62s7.5.88,10.5,2.62c3,1.76,5.34,4.18,7.05,7.28,1.12,2.06,1.85,4.36,2.18,6.9h-39.66Zm138.58-25.8c-6.81-5.8-16.35-8.7-28.65-8.7-6.41,0-12.71.82-18.9,2.48-6.21,1.64-11.51,4.07-15.9,7.27l8.25,16.35c3-2.3,6.57-4.12,10.72-5.48,4.15-1.34,8.37-2.02,12.68-2.02,6.3,0,10.97,1.4,14.02,4.2,3.05,2.8,4.58,6.7,4.58,11.7v.15h-18.45c-8.31,0-15,1-20.1,3s-8.83,4.83-11.18,8.47c-2.35,3.66-3.52,7.83-3.52,12.53s1.22,8.75,3.67,12.45c2.45,3.7,5.93,6.63,10.43,8.77,4.5,2.15,9.84,3.23,16.05,3.23,7.09,0,12.9-1.37,17.4-4.12,3.04-1.86,5.44-4.24,7.2-7.13v10.05h21.9v-46.05c0-12.3-3.41-21.35-10.2-27.15Zm-13.2,47.7c-1.31,3.7-3.53,6.45-6.68,8.25s-6.73,2.7-10.72,2.7-7.18-.87-9.53-2.62-3.52-4.13-3.52-7.13c0-2.7,1.02-4.95,3.07-6.75,2.05-1.8,5.82-2.7,11.33-2.7h16.05v8.25Zm103.34-46.78c-1.86-2.03-3.95-3.74-6.3-5.12-5.1-3-11.05-4.5-17.85-4.5-7.6,0-14.45,1.73-20.55,5.18-6.1,3.44-10.9,8.27-14.4,14.47s-5.25,13.5-5.25,21.9,1.75,15.7,5.25,21.9,8.3,11.03,14.4,14.48c6.1,3.44,12.95,5.17,20.55,5.17,7.1,0,13.18-1.47,18.23-4.42,2.65-1.55,4.98-3.55,6.97-6v9.22h22.35V25.7h-23.4v39.02Zm-2.32,43.93c-1.85,3.4-4.33,5.98-7.43,7.73-3.1,1.75-6.6,2.62-10.5,2.62s-7.25-.87-10.35-2.62c-3.1-1.75-5.57-4.33-7.42-7.73-1.85-3.4-2.78-7.4-2.78-12s.93-8.7,2.78-12c1.85-3.3,4.32-5.82,7.42-7.57,3.1-1.75,6.55-2.63,10.35-2.63s7.4.88,10.5,2.63c3.1,1.75,5.58,4.27,7.43,7.57,1.85,3.3,2.77,7.3,2.77,12s-.92,8.6-2.77,12Zm97.42-53.55v21.75c-.9-.2-1.78-.35-2.62-.45-.85-.1-1.68-.15-2.48-.15-6.6,0-11.85,1.85-15.75,5.55-3.9,3.7-5.85,9.4-5.85,17.1v38.1h-23.4V56.3h22.35v10.59c2.2-3.02,5-5.47,8.4-7.36,5.3-2.95,11.75-4.43,19.35-4.43Z"/><path class="cls-17" d="m347.09,164.3c-2.48,0-4.75.22-6.66.5v23.86c1.58.18,3.46.29,5.69.29,4.72,0,8.46-1.22,10.73-3.49,2.27-2.23,3.49-5.47,3.49-9.43s-1.26-6.73-3.42-8.71c-2.12-1.98-5.33-3.02-9.83-3.02Zm-.36,22.14c-1.22,0-2.38-.04-3.17-.18v-19.15c.83-.18,2.05-.32,3.67-.32,6.62,0,9.86,3.64,9.83,9.36,0,6.55-3.64,10.29-10.33,10.29Zm25.52-15.51c-5.08,0-8.17,4.14-8.17,9.39s3.2,8.78,8.57,8.78c2.77,0,4.68-.58,5.8-1.08l-.54-2.27c-1.19.5-2.56.9-4.82.9-3.17,0-5.9-1.76-5.98-6.05h12.24c.04-.32.11-.83.11-1.48,0-3.2-1.51-8.21-7.2-8.21Zm-5.11,7.42c.25-2.2,1.66-5.15,4.86-5.15,3.56,0,4.43,3.13,4.39,5.15h-9.25Zm5.62-9.4h-2.27l3.17-5.15h3.49l-4.39,5.15Zm13.46,11.12c0,4.03,2.59,6.51,6.05,6.51,1.8,0,2.99-.47,3.89-.86l.54,2.38c-.83.43-2.66,1.01-5,1.01-5.26,0-8.68-3.56-8.68-8.89s3.67-9.25,9.36-9.25c1.87,0,3.53.47,4.39.9l-.72,2.45c-.76-.43-1.94-.83-3.67-.83-4,0-6.16,2.95-6.16,6.59Zm22.25-9.14c-4.82,0-8.64,3.42-8.64,9.25,0,5.51,3.64,8.96,8.35,8.96,4.21,0,8.67-2.81,8.67-9.25,0-5.33-3.38-8.96-8.39-8.96Zm-.14,15.84c-3.1,0-5.29-2.88-5.29-6.7,0-3.31,1.62-6.77,5.36-6.77s5.22,3.74,5.22,6.7c0,3.92-2.27,6.77-5.29,6.77Zm28.01-2.77c0,1.8.04,3.38.14,4.75h-2.81l-.18-2.84h-.07c-.83,1.4-2.66,3.24-5.76,3.24-2.74,0-6.01-1.51-6.01-7.63v-10.19h3.17v9.65c0,3.31,1.01,5.54,3.89,5.54,2.12,0,3.6-1.48,4.18-2.88.18-.47.29-1.04.29-1.62v-10.69h3.17v12.67Zm17.17-12.67h3.31l-6.84,17.42h-3.02l-6.62-17.42h3.38l3.42,9.79c.58,1.58,1.04,3.02,1.4,4.46h.11c.4-1.44.9-2.88,1.48-4.46l3.38-9.79Zm14.9-.4c.36,0,.61.04.9.11v2.99c-.32-.07-.65-.11-1.08-.11-2.23,0-3.82,1.69-4.25,4.07-.07.43-.14.94-.14,1.48v9.29h-3.13v-11.99c0-2.05-.04-3.82-.14-5.44h2.77l.11,3.42h.14c.79-2.34,2.7-3.82,4.82-3.82Zm11.52,0c-5.08,0-8.17,4.14-8.17,9.39s3.2,8.78,8.57,8.78c2.77,0,4.68-.58,5.8-1.08l-.54-2.27c-1.19.5-2.56.9-4.82.9-3.17,0-5.9-1.76-5.98-6.05h12.24c.04-.32.11-.83.11-1.48,0-3.2-1.51-8.21-7.2-8.21Zm-5.11,7.42c.25-2.2,1.66-5.15,4.86-5.15,3.56,0,4.43,3.13,4.39,5.15h-9.25Zm19.12,7.88h10.19v2.52h-14.15v-1.84l7.88-10.26c.76-.94,1.48-1.76,2.27-2.7v-.07h-9.43v-2.56h13.28l-.04,1.98-7.77,10.12c-.72.97-1.44,1.84-2.23,2.74v.07Zm14.44-1.66l3.53-.36c-.83,3.06-2.41,7.05-3.42,8.75l-2.27.22c.79-2.12,1.76-5.98,2.16-8.6Zm16.77-21.38h3.17v25.56h-3.17v-25.56Zm12.92,3.24c.04,1.08-.76,1.94-2.02,1.94-1.12,0-1.91-.86-1.91-1.94s.83-1.98,1.98-1.98,1.94.86,1.94,1.98Zm-3.53,4.9h3.17v17.42h-3.17v-17.42Zm19.51,12.56c0,3.06-2.38,5.22-6.52,5.22-1.91,0-3.67-.47-4.9-1.19l.79-2.41c.94.61,2.59,1.26,4.18,1.26,2.3,0,3.38-1.15,3.38-2.59,0-1.51-.9-2.34-3.24-3.2-3.13-1.12-4.61-2.84-4.61-4.93,0-2.81,2.27-5.11,6.01-5.11,1.76,0,3.31.5,4.28,1.08l-.79,2.3c-.68-.43-1.94-1.01-3.56-1.01-1.87,0-2.92,1.08-2.92,2.38,0,1.44,1.04,2.09,3.31,2.95,3.02,1.15,4.57,2.66,4.57,5.25Zm11.88-12.96c-5.08,0-8.17,4.14-8.17,9.39s3.2,8.78,8.57,8.78c2.77,0,4.68-.58,5.8-1.08l-.54-2.27c-1.19.5-2.56.9-4.82.9-3.17,0-5.9-1.76-5.98-6.05h12.24c.04-.32.11-.83.11-1.48,0-3.2-1.51-8.21-7.2-8.21Zm-5.11,7.42c.25-2.2,1.66-5.15,4.86-5.15,3.56,0,4.43,3.13,4.39,5.15h-9.25Zm19.12,7.88h10.19v2.52h-14.15v-1.84l7.88-10.26c.76-.94,1.48-1.76,2.27-2.7v-.07h-9.43v-2.56h13.28l-.04,1.98-7.77,10.12c-.72.97-1.44,1.84-2.23,2.74v.07Zm29.77-15.3c-5.08,0-8.17,4.14-8.17,9.39s3.2,8.78,8.57,8.78c2.77,0,4.68-.58,5.8-1.08l-.54-2.27c-1.19.5-2.56.9-4.82.9-3.17,0-5.9-1.76-5.98-6.05h12.24c.04-.32.11-.83.11-1.48,0-3.2-1.51-8.21-7.2-8.21Zm-5.11,7.42c.25-2.2,1.66-5.15,4.86-5.15,3.56,0,4.43,3.13,4.39,5.15h-9.25Zm20.95-7.02h4.54v2.41h-4.54v9.39c0,2.16.61,3.38,2.38,3.38.83,0,1.44-.11,1.84-.22l.14,2.38c-.61.25-1.58.43-2.81.43-1.48,0-2.66-.47-3.42-1.33-.9-.94-1.22-2.48-1.22-4.54v-9.5h-2.7v-2.41h2.7v-4.18l3.1-.83v5Zm26.64-.4c-2.84,0-4.9,1.26-6.19,3.38h-.07l-.14-2.99h-2.84c.07,1.66.14,3.46.14,5.69v18.86h3.13v-9.47h.07c1.04,1.73,3.06,2.74,5.36,2.74,4.1,0,7.92-3.09,7.92-9.36,0-5.29-3.17-8.85-7.38-8.85Zm-1.08,15.73c-2.27,0-4.18-1.51-4.75-3.71-.07-.4-.14-.83-.14-1.3v-2.99c0-.43.11-.9.22-1.3.61-2.38,2.63-3.92,4.79-3.92,3.35,0,5.18,2.99,5.18,6.48,0,4-1.94,6.73-5.29,6.73Zm25.6-8.6c0-3.49-1.3-7.13-6.62-7.13-2.2,0-4.28.61-5.72,1.55l.72,2.09c1.22-.79,2.92-1.3,4.54-1.3,3.56,0,3.96,2.59,3.96,4.03v.36c-6.73-.04-10.47,2.27-10.47,6.48,0,2.52,1.8,5,5.33,5,2.48,0,4.35-1.22,5.33-2.59h.11l.25,2.2h2.88c-.22-1.19-.29-2.66-.29-4.18v-6.51Zm-3.06,4.82c0,.32-.07.68-.18,1.01-.5,1.48-1.94,2.92-4.21,2.92-1.62,0-2.99-.97-2.99-3.02,0-3.38,3.92-4,7.38-3.92v3.02Zm16.78-11.95c.36,0,.61.04.9.11v2.99c-.32-.07-.65-.11-1.08-.11-2.23,0-3.82,1.69-4.25,4.07-.07.43-.14.94-.14,1.48v9.29h-3.13v-11.99c0-2.05-.04-3.82-.14-5.44h2.77l.11,3.42h.14c.79-2.34,2.7-3.82,4.82-3.82Zm9.65.4h4.54v2.41h-4.54v9.39c0,2.16.61,3.38,2.38,3.38.83,0,1.44-.11,1.84-.22l.14,2.38c-.61.25-1.58.43-2.81.43-1.48,0-2.66-.47-3.42-1.33-.9-.94-1.22-2.48-1.22-4.54v-9.5h-2.7v-2.41h2.7v-4.18l3.1-.83v5Zm21.24,6.73c0-3.49-1.3-7.13-6.62-7.13-2.2,0-4.28.61-5.72,1.55l.72,2.09c1.22-.79,2.92-1.3,4.54-1.3,3.56,0,3.96,2.59,3.96,4.03v.36c-6.73-.04-10.47,2.27-10.47,6.48,0,2.52,1.8,5,5.33,5,2.48,0,4.36-1.22,5.33-2.59h.11l.25,2.2h2.88c-.22-1.19-.29-2.66-.29-4.18v-6.51Zm-3.06,4.82c0,.32-.07.68-.18,1.01-.5,1.48-1.94,2.92-4.21,2.92-1.62,0-2.99-.97-2.99-3.02,0-3.38,3.92-4,7.38-3.92v3.02Zm21.17-8.93h-.07c-.76-1.44-2.41-3.02-5.44-3.02-4,0-7.85,3.35-7.85,9.25,0,4.82,3.1,8.5,7.42,8.5,2.7,0,4.57-1.3,5.54-2.92h.07v1.94c0,4.39-2.38,6.08-5.62,6.08-2.16,0-3.96-.65-5.11-1.37l-.79,2.41c1.4.94,3.71,1.44,5.79,1.44,2.2,0,4.64-.5,6.34-2.09,1.69-1.51,2.48-3.96,2.48-7.96v-10.12c0-2.12.07-3.53.14-4.79h-2.77l-.14,2.63Zm-.36,7.38c0,.54-.07,1.15-.25,1.69-.68,2.02-2.45,3.24-4.39,3.24-3.42,0-5.15-2.84-5.15-6.26,0-4.03,2.16-6.59,5.18-6.59,2.3,0,3.85,1.51,4.43,3.35.14.43.18.9.18,1.44v3.13Zm16.2-10.4c-5.08,0-8.17,4.14-8.17,9.39s3.2,8.78,8.57,8.78c2.77,0,4.68-.58,5.8-1.08l-.54-2.27c-1.19.5-2.56.9-4.82.9-3.17,0-5.9-1.76-5.98-6.05h12.24c.04-.32.11-.83.11-1.48,0-3.2-1.51-8.21-7.2-8.21Zm-5.11,7.42c.25-2.2,1.66-5.15,4.86-5.15,3.56,0,4.43,3.13,4.39,5.15h-9.25Zm29.3,7.88v2.52h-14.15v-1.84l7.88-10.26c.76-.94,1.48-1.76,2.27-2.7v-.07h-9.43v-2.56h13.28l-.04,1.98-7.77,10.12c-.72.97-1.44,1.84-2.23,2.74v.07h10.19Z"/></svg>