<?xml version="1.0" encoding="UTF-8"?><svg id="Layer_1" xmlns="http://www.w3.org/2000/svg" xmlns:xlink="http://www.w3.org/1999/xlink" viewBox="0 0 500 385.13"><defs><style>.cls-1{stroke:url(#linear-gradient-5);}.cls-1,.cls-2,.cls-3,.cls-4,.cls-5,.cls-6{fill:none;stroke-miterlimit:10;stroke-width:7px;}.cls-7{fill:#fff;}.cls-8{fill:url(#linear-gradient-17);}.cls-2{stroke:url(#linear-gradient-4);}.cls-9{fill:url(#linear-gradient-15);}.cls-10{fill:url(#linear-gradient-14);}.cls-11{fill:url(#linear-gradient-11);}.cls-12{fill:url(#linear-gradient-10);}.cls-13{fill:url(#linear-gradient-16);}.cls-3{stroke:url(#linear-gradient-3);}.cls-14{fill:url(#linear-gradient-7);}.cls-4{stroke:url(#linear-gradient);}.cls-5{stroke:url(#linear-gradient-2);}.cls-15{fill:url(#linear-gradient-9);}.cls-16{fill:url(#linear-gradient-8);}.cls-6{stroke:url(#linear-gradient-6);}.cls-17{fill:url(#linear-gradient-12);}.cls-18{fill:url(#linear-gradient-13);}</style><linearGradient id="linear-gradient" x1="617.19" y1="212.42" x2="616.36" y2="288.39" gradientTransform="translate(969.31) rotate(-180) scale(1 -1)" gradientUnits="userSpaceOnUse"><stop offset="0" stop-color="#f27900"/><stop offset="1" stop-color="#fddf00"/></linearGradient><linearGradient id="linear-gradient-2" x1="607.12" y1="239.57" x2="606.41" y2="304.94" xlink:href="#linear-gradient"/><linearGradient id="linear-gradient-3" x1="599.4" y1="269.88" x2="598.82" y2="322.3" xlink:href="#linear-gradient"/><linearGradient id="linear-gradient-4" x1="147.89" y1="212.42" x2="147.05" y2="288.39" gradientUnits="userSpaceOnUse"><stop offset="0" stop-color="#fddf00"/><stop offset="1" stop-color="#f27900"/></linearGradient><linearGradient id="linear-gradient-5" x1="137.82" y1="239.57" x2="137.1" y2="304.94" xlink:href="#linear-gradient-4"/><linearGradient id="linear-gradient-6" x1="130.09" y1="269.88" x2="129.51" y2="322.3" xlink:href="#linear-gradient-4"/><linearGradient id="linear-gradient-7" x1="10.95" y1="330.23" x2="489.05" y2="330.23" gradientTransform="matrix(1, 0, 0, 1, 0, 0)" xlink:href="#linear-gradient"/><linearGradient id="linear-gradient-8" x1="249.67" y1="297.84" x2="250.32" y2="372.83" gradientUnits="userSpaceOnUse"><stop offset="0" stop-color="#c2732c"/><stop offset="1" stop-color="#573600"/></linearGradient><linearGradient id="linear-gradient-9" x1="157.8" y1="42.25" x2="156.47" y2="282.59" xlink:href="#linear-gradient-4"/><linearGradient id="linear-gradient-10" x1="768.92" y1="22.82" x2="700.98" y2="130.49" gradientTransform="translate(895.97) rotate(-180) scale(1 -1)" xlink:href="#linear-gradient-8"/><linearGradient id="linear-gradient-11" x1="343.71" y1="43.28" x2="342.38" y2="283.61" xlink:href="#linear-gradient-4"/><linearGradient id="linear-gradient-12" x1="374.03" y1="22.82" x2="306.09" y2="130.49" xlink:href="#linear-gradient-8"/><linearGradient id="linear-gradient-13" x1="163.32" y1="159.12" x2="220.16" y2="159.12" gradientTransform="translate(302.73 -63.95) rotate(76.76)" xlink:href="#linear-gradient-8"/><linearGradient id="linear-gradient-14" x1="279.84" y1="159.12" x2="336.68" y2="159.12" gradientTransform="translate(202.8 -171.37) rotate(45)" xlink:href="#linear-gradient-8"/><linearGradient id="linear-gradient-15" x1="229.46" y1="212.11" x2="227.28" y2="330.01" xlink:href="#linear-gradient-4"/><linearGradient id="linear-gradient-16" x1="271.2" y1="267.61" x2="270.11" y2="366.5" xlink:href="#linear-gradient-4"/><linearGradient id="linear-gradient-17" x1="8300.36" y1="8218.53" x2="8398.61" y2="8217.76" gradientTransform="translate(8607.83 -8000.12) rotate(90)" xlink:href="#linear-gradient"/></defs><g><path class="cls-4" d="m250,286.06s110.15-15.96,203.76-71.73"/><path class="cls-5" d="m250,302.68s114.99-3.47,223.54-61.23"/><path class="cls-3" d="m250,320.13s130-1.1,239.05-48.34"/></g><g><path class="cls-2" d="m250,286.06s-110.15-15.96-203.76-71.73"/><path class="cls-1" d="m250,302.68s-114.99-3.47-223.54-61.23"/><path class="cls-6" d="m250,320.13s-130-1.1-239.05-48.34"/></g><rect class="cls-14" x="10.95" y="316.13" width="478.09" height="28.21"/><polygon class="cls-16" points="500 325.59 0 325.59 0 346.19 208.64 346.19 208.64 361.94 291.36 361.94 291.36 346.19 500 346.19 500 325.59"/><g><path class="cls-15" d="m250,40.17S178.02,34.29,122.18,0c0,0,8.82,139.55-58.78,194.68,0,0,83.27,56.11,186.6,91.38V40.17Z"/><path class="cls-12" d="m250,159.12s13.31-62.57-53.74-84.48C129.2,52.74,99.33,37.46,92.02,8.92c0,0-34.73,73.25,69.99,100.09,85.49,21.91,87.98,50.12,87.98,50.12Z"/><path class="cls-11" d="m250,40.17s71.98-5.88,127.82-40.17c0,0-8.82,139.55,58.78,194.68,0,0-83.27,56.11-186.6,91.38V40.17Z"/><path class="cls-17" d="m251.08,159.12s-13.31-62.57,53.74-84.48c67.06-21.91,96.93-37.18,104.24-65.73,0,0,34.73,73.25-69.99,100.09-85.49,21.91-87.98,50.12-87.98,50.12Z"/><circle class="cls-7" cx="191.74" cy="159.12" r="58.26"/><circle class="cls-18" cx="191.74" cy="159.12" r="28.42" transform="translate(-7.06 309.33) rotate(-76.76)"/><path class="cls-7" d="m220.16,143.48c0,7.06-5.72,12.78-12.78,12.78s-12.78-5.72-12.78-12.78,5.72-12.78,12.78-12.78,12.78,5.72,12.78,12.78Z"/><circle class="cls-7" cx="308.26" cy="159.12" r="58.26"/><circle class="cls-10" cx="308.26" cy="159.12" r="28.42" transform="translate(-22.23 264.58) rotate(-45)"/><path class="cls-7" d="m336.68,143.48c0,7.06-5.72,12.78-12.78,12.78s-12.78-5.72-12.78-12.78,5.72-12.78,12.78-12.78,12.78,5.72,12.78,12.78Z"/><polygon class="cls-9" points="206.56 240.12 250 200.51 250 312 206.56 240.12"/><polygon class="cls-13" points="293.44 240.12 250 200.51 250 312 293.44 240.12"/></g><polygon class="cls-8" points="369.52 385.13 369.52 325.11 409.93 325.11 409.93 385.13 389.73 377.24 369.52 385.13"/></svg>