<?xml version="1.0" encoding="UTF-8"?><svg id="Layer_1" xmlns="http://www.w3.org/2000/svg" xmlns:xlink="http://www.w3.org/1999/xlink" viewBox="0 0 300 450"><defs><style>.cls-1{fill:#fff;}.cls-2{fill:url(#linear-gradient-17);}.cls-3{fill:url(#linear-gradient-15);}.cls-4{fill:url(#linear-gradient-18);}.cls-5{fill:url(#linear-gradient-14);}.cls-6{stroke:url(#linear-gradient-5);}.cls-6,.cls-7,.cls-8,.cls-9,.cls-10,.cls-11,.cls-12,.cls-13{stroke-miterlimit:10;}.cls-6,.cls-7,.cls-8,.cls-10,.cls-11,.cls-12,.cls-13{fill:none;}.cls-6,.cls-7,.cls-10,.cls-11,.cls-12,.cls-13{stroke-width:1.84px;}.cls-14{fill:url(#linear-gradient-11);}.cls-15{fill:url(#linear-gradient-10);}.cls-7{stroke:url(#linear-gradient-4);}.cls-8{stroke:url(#linear-gradient);stroke-width:3.71px;}.cls-8,.cls-16,.cls-17,.cls-18{opacity:.6;}.cls-19{fill:url(#linear-gradient-16);}.cls-9{fill:url(#linear-gradient-21);stroke:#666;stroke-width:.25px;}.cls-16{fill:url(#linear-gradient-20);filter:url(#drop-shadow-2);}.cls-10{stroke:url(#linear-gradient-7);}.cls-20{fill:#efefef;}.cls-11{stroke:url(#linear-gradient-2);}.cls-21{fill:url(#linear-gradient-9);}.cls-18{fill:url(#linear-gradient-19);filter:url(#drop-shadow-1);}.cls-22{fill:url(#linear-gradient-8);}.cls-12{stroke:url(#linear-gradient-3);}.cls-23{fill:url(#linear-gradient-12);}.cls-13{stroke:url(#linear-gradient-6);}.cls-24{fill:url(#linear-gradient-13);}</style><linearGradient id="linear-gradient" x1="12.15" y1="225.5" x2="287.85" y2="225.5" gradientUnits="userSpaceOnUse"><stop offset="0" stop-color="#fddf00"/><stop offset="1" stop-color="#f27900"/></linearGradient><linearGradient id="linear-gradient-2" x1="3384.09" y1="111.74" x2="3383.87" y2="131.72" gradientTransform="translate(3560.96) rotate(-180) scale(1 -1)" gradientUnits="userSpaceOnUse"><stop offset="0" stop-color="#f27900"/><stop offset="1" stop-color="#fddf00"/></linearGradient><linearGradient id="linear-gradient-3" x1="3381.44" y1="118.88" x2="3381.25" y2="136.08" xlink:href="#linear-gradient-2"/><linearGradient id="linear-gradient-4" x1="3379.41" y1="126.85" x2="3379.26" y2="140.64" xlink:href="#linear-gradient-2"/><linearGradient id="linear-gradient-5" x1="123.14" y1="111.74" x2="122.92" y2="131.72" xlink:href="#linear-gradient"/><linearGradient id="linear-gradient-6" x1="120.49" y1="118.88" x2="120.3" y2="136.08" xlink:href="#linear-gradient"/><linearGradient id="linear-gradient-7" x1="118.46" y1="126.85" x2="118.3" y2="140.64" xlink:href="#linear-gradient"/><linearGradient id="linear-gradient-8" x1="87.11" y1="142.73" x2="212.89" y2="142.73" gradientTransform="matrix(1, 0, 0, 1, 0, 0)" xlink:href="#linear-gradient-2"/><linearGradient id="linear-gradient-9" x1="149.91" y1="134.21" x2="150.08" y2="153.94" gradientUnits="userSpaceOnUse"><stop offset="0" stop-color="#c2732c"/><stop offset="1" stop-color="#573600"/></linearGradient><linearGradient id="linear-gradient-10" x1="125.74" y1="66.97" x2="125.4" y2="130.2" xlink:href="#linear-gradient"/><linearGradient id="linear-gradient-11" x1="3369.96" y1="61.86" x2="3352.09" y2="90.18" gradientTransform="translate(3487.62) rotate(-180) scale(1 -1)" xlink:href="#linear-gradient-9"/><linearGradient id="linear-gradient-12" x1="174.65" y1="67.24" x2="174.3" y2="130.47" xlink:href="#linear-gradient"/><linearGradient id="linear-gradient-13" x1="182.63" y1="61.86" x2="164.76" y2="90.18" xlink:href="#linear-gradient-9"/><linearGradient id="linear-gradient-14" x1="127.2" y1="97.72" x2="142.15" y2="97.72" gradientTransform="translate(198.96 -55.75) rotate(76.76)" xlink:href="#linear-gradient-9"/><linearGradient id="linear-gradient-15" x1="157.85" y1="97.72" x2="172.8" y2="97.72" gradientTransform="translate(117.52 -88.28) rotate(45)" xlink:href="#linear-gradient-9"/><linearGradient id="linear-gradient-16" x1="144.6" y1="111.65" x2="144.02" y2="142.67" xlink:href="#linear-gradient"/><linearGradient id="linear-gradient-17" x1="155.58" y1="126.26" x2="155.29" y2="152.27" xlink:href="#linear-gradient"/><linearGradient id="linear-gradient-18" x1="9513.2" y1="9634.59" x2="9539.04" y2="9634.39" gradientTransform="translate(9821.24 -9378.36) rotate(90)" xlink:href="#linear-gradient-2"/><linearGradient id="linear-gradient-19" x1="50.62" y1="193.25" x2="249.38" y2="193.25" xlink:href="#linear-gradient"/><filter id="drop-shadow-1" filterUnits="userSpaceOnUse"><feOffset dx=".88" dy=".88"/><feGaussianBlur result="blur" stdDeviation=".44"/><feFlood flood-color="#000" flood-opacity=".75"/><feComposite in2="blur" operator="in"/><feComposite in="SourceGraphic"/></filter><linearGradient id="linear-gradient-20" x1="53.01" y1="236.46" x2="246.99" y2="236.46" xlink:href="#linear-gradient"/><filter id="drop-shadow-2" filterUnits="userSpaceOnUse"><feOffset dx=".88" dy=".88"/><feGaussianBlur result="blur-2" stdDeviation=".44"/><feFlood flood-color="#000" flood-opacity=".75"/><feComposite in2="blur-2" operator="in"/><feComposite in="SourceGraphic"/></filter><linearGradient id="linear-gradient-21" x1="30.78" y1="332.47" x2="269.22" y2="332.47" xlink:href="#linear-gradient"/></defs><rect class="cls-20" width="300" height="450"/><rect class="cls-8" x="14" y="12.5" width="272" height="426"/><g><g class="cls-17"><g><g><path class="cls-11" d="m150,131.11s28.98-4.2,53.6-18.87"/><path class="cls-12" d="m150,135.48s30.25-.91,58.81-16.11"/><path class="cls-7" d="m150,140.07s34.2-.29,62.88-12.72"/></g><g><path class="cls-6" d="m150,131.11s-28.98-4.2-53.6-18.87"/><path class="cls-13" d="m150,135.48s-30.25-.91-58.81-16.11"/><path class="cls-10" d="m150,140.07s-34.2-.29-62.89-12.72"/></g><rect class="cls-22" x="87.11" y="139.02" width="125.77" height="7.42"/><polygon class="cls-21" points="215.77 141.51 84.23 141.51 84.23 146.93 139.12 146.93 139.12 151.07 160.88 151.07 160.88 146.93 215.77 146.93 215.77 141.51"/><g><path class="cls-15" d="m150,66.42s-18.94-1.55-33.62-10.57c0,0,2.32,36.71-15.46,51.21,0,0,21.91,14.76,49.09,24.04v-64.69Z"/><path class="cls-14" d="m150,97.72s3.5-16.46-14.14-22.22c-17.64-5.76-25.5-9.78-27.42-17.29,0,0-9.14,19.27,18.41,26.33,22.49,5.76,23.15,13.18,23.15,13.18Z"/><path class="cls-23" d="m150,66.42s18.93-1.55,33.62-10.57c0,0-2.32,36.71,15.46,51.21,0,0-21.91,14.76-49.09,24.04v-64.69Z"/><path class="cls-24" d="m150.28,97.72s-3.5-16.46,14.14-22.22c17.64-5.76,25.5-9.78,27.42-17.29,0,0,9.14,19.27-18.41,26.33-22.49,5.76-23.15,13.18-23.15,13.18Z"/><circle class="cls-1" cx="134.67" cy="97.72" r="15.33"/><circle class="cls-5" cx="134.67" cy="97.72" r="7.48" transform="translate(8.72 206.44) rotate(-76.76)"/><path class="cls-1" d="m142.15,93.6c0,1.86-1.51,3.36-3.36,3.36s-3.36-1.51-3.36-3.36,1.51-3.36,3.36-3.36,3.36,1.51,3.36,3.36Z"/><circle class="cls-1" cx="165.33" cy="97.72" r="15.33"/><circle class="cls-3" cx="165.33" cy="97.72" r="7.48" transform="translate(-20.67 145.52) rotate(-45)"/><path class="cls-1" d="m172.8,93.6c0,1.86-1.51,3.36-3.36,3.36s-3.36-1.51-3.36-3.36,1.51-3.36,3.36-3.36,3.36,1.51,3.36,3.36Z"/><polygon class="cls-19" points="138.57 119.02 150 108.6 150 137.93 138.57 119.02"/><polygon class="cls-2" points="161.43 119.02 150 108.6 150 137.93 161.43 119.02"/></g><polygon class="cls-4" points="181.44 157.17 181.44 141.38 192.07 141.38 192.07 157.17 186.76 155.1 181.44 157.17"/></g></g><path class="cls-18" d="m81.44,202.63c3-1.3,5.32-3.2,6.96-5.7,1.63-2.5,2.45-5.49,2.45-8.98s-.82-6.43-2.45-8.95c-1.63-2.52-3.95-4.45-6.96-5.8-3-1.35-6.58-2.02-10.74-2.02h-20.08v46.4h10.8v-12.99h9.28c.16,0,.32,0,.47,0l9.01,13h11.53l-10.34-14.92s.04-.02.07-.03Zm-3.91-8.71c-1.68,1.41-4.15,2.12-7.42,2.12h-8.68v-16.11h8.68c3.27,0,5.74.7,7.42,2.09,1.68,1.39,2.52,3.37,2.52,5.93s-.84,4.55-2.52,5.97Zm46.96-10.27c-2.81-1.5-5.96-2.25-9.44-2.25s-6.88.79-9.78,2.35c-2.89,1.57-5.15,3.75-6.76,6.53-1.61,2.78-2.42,5.94-2.42,9.48s.84,6.69,2.52,9.45c1.68,2.76,4.04,4.94,7.09,6.53,3.05,1.59,6.6,2.39,10.67,2.39,3.22,0,6.07-.49,8.55-1.49,2.47-.99,4.53-2.42,6.16-4.28l-5.5-5.97c-1.19,1.15-2.51,2.01-3.95,2.58s-3.08.86-4.94.86c-2.17,0-4.03-.38-5.57-1.16-1.55-.77-2.77-1.89-3.65-3.35-.49-.8-.84-1.69-1.06-2.65h26.98c.04-.44.08-.91.13-1.42.04-.51.07-.96.07-1.36,0-3.84-.82-7.14-2.45-9.88-1.64-2.74-3.86-4.86-6.66-6.36Zm-18.18,12.99c.17-1.11.5-2.12.99-3.01.75-1.4,1.8-2.47,3.15-3.25,1.35-.77,2.9-1.16,4.67-1.16s3.31.39,4.64,1.16c1.33.78,2.36,1.85,3.12,3.22.49.91.82,1.93.96,3.05h-17.52Zm61.23-11.4c-3.01-2.56-7.22-3.84-12.66-3.84-2.83,0-5.62.36-8.35,1.1-2.74.72-5.09,1.8-7.03,3.21l3.65,7.22c1.33-1.02,2.9-1.82,4.74-2.42,1.83-.59,3.7-.89,5.6-.89,2.78,0,4.85.62,6.19,1.86,1.35,1.24,2.02,2.96,2.02,5.17v.07h-8.15c-3.67,0-6.63.44-8.88,1.33s-3.9,2.13-4.94,3.74c-1.04,1.62-1.56,3.46-1.56,5.54s.54,3.87,1.62,5.5c1.08,1.63,2.62,2.93,4.61,3.88,1.99.95,4.35,1.43,7.09,1.43,3.13,0,5.7-.61,7.69-1.82,1.34-.82,2.4-1.87,3.18-3.15v4.44h9.68v-20.35c0-5.43-1.51-9.43-4.51-12Zm-5.83,21.08c-.58,1.63-1.56,2.85-2.95,3.65s-2.97,1.19-4.74,1.19-3.17-.38-4.21-1.16-1.56-1.82-1.56-3.15c0-1.19.45-2.19,1.36-2.98.91-.8,2.57-1.19,5.01-1.19h7.09v3.65Zm45.66-20.67c-.82-.9-1.75-1.65-2.78-2.26-2.25-1.33-4.88-1.99-7.89-1.99-3.36,0-6.38.76-9.08,2.29-2.7,1.52-4.82,3.65-6.36,6.39s-2.32,5.97-2.32,9.68.77,6.94,2.32,9.68,3.67,4.87,6.36,6.4c2.7,1.52,5.72,2.28,9.08,2.28,3.14,0,5.82-.65,8.06-1.95,1.17-.68,2.2-1.57,3.08-2.65v4.07h9.88v-49.18h-10.34v17.24Zm-1.03,19.41c-.82,1.5-1.91,2.64-3.28,3.42-1.37.77-2.92,1.16-4.64,1.16s-3.2-.38-4.57-1.16c-1.37-.77-2.46-1.91-3.28-3.42-.82-1.5-1.23-3.27-1.23-5.3s.41-3.84,1.23-5.3c.82-1.46,1.91-2.57,3.28-3.34,1.37-.77,2.89-1.16,4.57-1.16s3.27.39,4.64,1.16c1.37.77,2.47,1.89,3.28,3.34.82,1.46,1.22,3.23,1.22,5.3s-.41,3.8-1.22,5.3Zm43.05-23.66v9.61c-.4-.09-.79-.15-1.16-.2-.38-.04-.74-.07-1.1-.07-2.92,0-5.24.82-6.96,2.45-1.72,1.63-2.58,4.15-2.58,7.56v16.83h-10.34v-35.66h9.88v4.68c.97-1.33,2.21-2.42,3.71-3.25,2.34-1.3,5.19-1.96,8.55-1.96Z"/><path class="cls-16" d="m55.95,229.64c-1.1,0-2.1.1-2.94.22v10.54c.7.08,1.53.13,2.51.13,2.08,0,3.74-.54,4.74-1.54,1-.99,1.54-2.42,1.54-4.17s-.56-2.97-1.51-3.85c-.94-.88-2.35-1.34-4.34-1.34Zm-.16,9.78c-.54,0-1.05-.02-1.4-.08v-8.46c.37-.08.91-.14,1.62-.14,2.93,0,4.36,1.61,4.34,4.14,0,2.89-1.61,4.55-4.56,4.55Zm11.28-6.85c-2.24,0-3.61,1.83-3.61,4.15s1.42,3.88,3.79,3.88c1.22,0,2.07-.25,2.56-.48l-.24-1c-.52.22-1.13.4-2.13.4-1.4,0-2.61-.78-2.64-2.67h5.41c.02-.14.05-.37.05-.65,0-1.42-.67-3.63-3.18-3.63Zm-2.26,3.28c.11-.97.73-2.27,2.15-2.27,1.57,0,1.96,1.38,1.94,2.27h-4.09Zm2.48-4.15h-1l1.4-2.27h1.54l-1.94,2.27Zm5.95,4.91c0,1.78,1.15,2.88,2.67,2.88.8,0,1.32-.21,1.72-.38l.24,1.05c-.37.19-1.18.45-2.21.45-2.32,0-3.83-1.57-3.83-3.93s1.62-4.09,4.14-4.09c.83,0,1.56.21,1.94.4l-.32,1.08c-.33-.19-.86-.37-1.62-.37-1.77,0-2.72,1.3-2.72,2.91Zm9.83-4.04c-2.13,0-3.82,1.51-3.82,4.09,0,2.43,1.61,3.96,3.69,3.96,1.86,0,3.83-1.24,3.83-4.09,0-2.35-1.49-3.96-3.71-3.96Zm-.06,7c-1.37,0-2.34-1.27-2.34-2.96,0-1.46.72-2.99,2.37-2.99s2.31,1.65,2.31,2.96c0,1.73-1,2.99-2.34,2.99Zm12.38-1.22c0,.8.02,1.49.06,2.1h-1.24l-.08-1.26h-.03c-.37.62-1.18,1.43-2.54,1.43-1.21,0-2.66-.67-2.66-3.37v-4.5h1.4v4.26c0,1.46.45,2.45,1.72,2.45.94,0,1.59-.65,1.85-1.27.08-.21.13-.46.13-.72v-4.72h1.4v5.6Zm7.59-5.6h1.46l-3.02,7.7h-1.34l-2.93-7.7h1.5l1.51,4.33c.25.7.46,1.34.62,1.97h.05c.17-.64.4-1.27.65-1.97l1.49-4.33Zm6.59-.17c.16,0,.27.02.4.05v1.32c-.14-.03-.29-.05-.48-.05-.99,0-1.69.75-1.88,1.8-.03.19-.06.41-.06.65v4.1h-1.38v-5.3c0-.91-.02-1.69-.06-2.4h1.22l.05,1.51h.06c.35-1.03,1.19-1.69,2.13-1.69Zm5.09,0c-2.24,0-3.61,1.83-3.61,4.15s1.42,3.88,3.79,3.88c1.22,0,2.07-.25,2.56-.48l-.24-1c-.52.22-1.13.4-2.13.4-1.4,0-2.61-.78-2.64-2.67h5.41c.02-.14.05-.37.05-.65,0-1.42-.67-3.63-3.18-3.63Zm-2.26,3.28c.11-.97.73-2.27,2.15-2.27,1.57,0,1.96,1.38,1.94,2.27h-4.09Zm8.45,3.48h4.5v1.11h-6.25v-.81l3.48-4.53c.33-.41.65-.78,1-1.19v-.03h-4.17v-1.13h5.87l-.02.87-3.44,4.47c-.32.43-.64.81-.99,1.21v.03Zm6.38-.73l1.56-.16c-.37,1.35-1.07,3.12-1.51,3.86l-1,.1c.35-.94.78-2.64.95-3.8Zm7.41-9.45h1.4v11.29h-1.4v-11.29Zm5.71,1.43c.02.48-.33.86-.89.86-.49,0-.84-.38-.84-.86s.37-.87.87-.87.86.38.86.87Zm-1.56,2.16h1.4v7.7h-1.4v-7.7Zm8.62,5.55c0,1.35-1.05,2.31-2.88,2.31-.84,0-1.62-.21-2.16-.53l.35-1.07c.41.27,1.15.56,1.84.56,1.02,0,1.5-.51,1.5-1.15,0-.67-.4-1.03-1.43-1.42-1.38-.49-2.04-1.26-2.04-2.18,0-1.24,1-2.26,2.66-2.26.78,0,1.46.22,1.89.48l-.35,1.02c-.3-.19-.86-.45-1.57-.45-.83,0-1.29.48-1.29,1.05,0,.64.46.92,1.46,1.3,1.34.51,2.02,1.18,2.02,2.32Zm5.25-5.73c-2.24,0-3.61,1.83-3.61,4.15s1.42,3.88,3.79,3.88c1.22,0,2.07-.25,2.56-.48l-.24-1c-.52.22-1.13.4-2.13.4-1.4,0-2.61-.78-2.64-2.67h5.41c.02-.14.05-.37.05-.65,0-1.42-.67-3.63-3.18-3.63Zm-2.26,3.28c.11-.97.73-2.27,2.15-2.27,1.57,0,1.96,1.38,1.94,2.27h-4.09Zm8.45,3.48h4.5v1.11h-6.25v-.81l3.48-4.53c.33-.41.65-.78,1-1.19v-.03h-4.17v-1.13h5.87l-.02.87-3.44,4.47c-.32.43-.64.81-.99,1.21v.03Zm13.15-6.76c-2.24,0-3.61,1.83-3.61,4.15s1.42,3.88,3.79,3.88c1.22,0,2.07-.25,2.56-.48l-.24-1c-.52.22-1.13.4-2.13.4-1.4,0-2.61-.78-2.64-2.67h5.41c.02-.14.05-.37.05-.65,0-1.42-.67-3.63-3.18-3.63Zm-2.26,3.28c.11-.97.73-2.27,2.15-2.27,1.57,0,1.96,1.38,1.94,2.27h-4.09Zm9.26-3.1h2v1.07h-2v4.15c0,.95.27,1.5,1.05,1.5.37,0,.64-.05.81-.1l.06,1.05c-.27.11-.7.19-1.24.19-.65,0-1.18-.21-1.51-.59-.4-.41-.54-1.1-.54-2v-4.2h-1.19v-1.07h1.19v-1.85l1.37-.37v2.21Zm11.77-.17c-1.26,0-2.16.56-2.74,1.49h-.03l-.06-1.32h-1.26c.03.73.06,1.53.06,2.51v8.33h1.38v-4.18h.03c.46.76,1.35,1.21,2.37,1.21,1.81,0,3.5-1.37,3.5-4.14,0-2.34-1.4-3.91-3.26-3.91Zm-.48,6.95c-1,0-1.85-.67-2.1-1.64-.03-.18-.06-.37-.06-.57v-1.32c0-.19.05-.4.1-.57.27-1.05,1.16-1.73,2.12-1.73,1.48,0,2.29,1.32,2.29,2.86,0,1.77-.86,2.97-2.34,2.97Zm11.31-3.8c0-1.54-.57-3.15-2.93-3.15-.97,0-1.89.27-2.53.68l.32.92c.54-.35,1.29-.57,2-.57,1.57,0,1.75,1.15,1.75,1.78v.16c-2.97-.02-4.63,1-4.63,2.86,0,1.11.8,2.21,2.35,2.21,1.1,0,1.92-.54,2.35-1.14h.05l.11.97h1.27c-.1-.52-.13-1.18-.13-1.85v-2.88Zm-1.35,2.13c0,.14-.03.3-.08.45-.22.65-.86,1.29-1.86,1.29-.72,0-1.32-.43-1.32-1.34,0-1.49,1.73-1.77,3.26-1.73v1.34Zm7.41-5.28c.16,0,.27.02.4.05v1.32c-.14-.03-.29-.05-.48-.05-.99,0-1.69.75-1.88,1.8-.03.19-.06.41-.06.65v4.1h-1.38v-5.3c0-.91-.02-1.69-.06-2.4h1.22l.05,1.51h.06c.35-1.03,1.19-1.69,2.13-1.69Zm4.26.17h2v1.07h-2v4.15c0,.95.27,1.5,1.05,1.5.37,0,.64-.05.81-.1l.06,1.05c-.27.11-.7.19-1.24.19-.65,0-1.18-.21-1.51-.59-.4-.41-.54-1.1-.54-2v-4.2h-1.19v-1.07h1.19v-1.85l1.37-.37v2.21Zm9.38,2.97c0-1.54-.57-3.15-2.93-3.15-.97,0-1.89.27-2.53.68l.32.92c.54-.35,1.29-.57,2-.57,1.57,0,1.75,1.15,1.75,1.78v.16c-2.97-.02-4.63,1-4.63,2.86,0,1.11.8,2.21,2.35,2.21,1.1,0,1.92-.54,2.35-1.14h.05l.11.97h1.27c-.1-.52-.13-1.18-.13-1.85v-2.88Zm-1.35,2.13c0,.14-.03.3-.08.45-.22.65-.86,1.29-1.86,1.29-.72,0-1.32-.43-1.32-1.34,0-1.49,1.73-1.77,3.26-1.73v1.34Zm9.35-3.94h-.03c-.33-.64-1.07-1.34-2.4-1.34-1.77,0-3.47,1.48-3.47,4.09,0,2.13,1.37,3.75,3.28,3.75,1.19,0,2.02-.57,2.45-1.29h.03v.86c0,1.94-1.05,2.69-2.48,2.69-.95,0-1.75-.29-2.26-.6l-.35,1.07c.62.41,1.64.64,2.56.64.97,0,2.05-.22,2.8-.92.75-.67,1.1-1.75,1.1-3.52v-4.47c0-.94.03-1.56.06-2.12h-1.22l-.06,1.16Zm-.16,3.26c0,.24-.03.51-.11.75-.3.89-1.08,1.43-1.94,1.43-1.51,0-2.27-1.26-2.27-2.77,0-1.78.95-2.91,2.29-2.91,1.02,0,1.7.67,1.96,1.48.06.19.08.4.08.64v1.38Zm7.16-4.6c-2.24,0-3.61,1.83-3.61,4.15s1.42,3.88,3.79,3.88c1.22,0,2.07-.25,2.56-.48l-.24-1c-.52.22-1.13.4-2.13.4-1.4,0-2.61-.78-2.64-2.67h5.41c.02-.14.05-.37.05-.65,0-1.42-.67-3.63-3.18-3.63Zm-2.26,3.28c.11-.97.73-2.27,2.15-2.27,1.57,0,1.96,1.38,1.94,2.27h-4.09Zm12.95,3.48v1.11h-6.25v-.81l3.48-4.53c.33-.41.65-.78,1-1.19v-.03h-4.17v-1.13h5.87l-.02.87-3.44,4.47c-.32.43-.64.81-.99,1.21v.03h4.5Z"/><path class="cls-9" d="m37.15,312.81c-.45.56-.68,1.3-.68,2.24,0,1.29.33,2.47.98,3.54.88,1.43,2.15,2.14,3.8,2.14.61,0,1.21-.1,1.8-.3.59-.2,1.06-.46,1.39-.79.28-.27.52-.4.7-.4.26,0,.49.12.67.37s.28.54.28.88c0,.43-.13.92-.39,1.46s-.58.96-.94,1.27c-.16.13-.48.24-.98.34-.28.05-.66.19-1.13.42-1.11.53-2.26.8-3.46.8s-2.5-.28-3.74-.84c-1.44-.65-2.59-1.65-3.43-3-.82-1.31-1.24-2.68-1.24-4.11,0-1.66.52-3.18,1.55-4.55.9-1.19,2.07-2.1,3.52-2.73,1.1-.48,2.23-.72,3.4-.72,1.09,0,2.15.24,3.17.72.48.22.81.34,1,.34.13,0,.35-.03.65-.1.1-.02.21-.03.33-.03.39,0,.73.18,1.02.54.72.87,1.08,1.95,1.08,3.23,0,.91-.31,1.57-.93,1.99-.34.22-.71.34-1.13.34-.38,0-.69-.08-.93-.25s-.47-.46-.7-.88c-.32-.59-.58-1.02-.79-1.27-.2-.26-.45-.49-.74-.7-.73-.51-1.49-.76-2.28-.76s-1.38.28-1.84.84Zm23.68,6.18c0,1.62-.75,3.01-2.23,4.14-1.42,1.09-3.05,1.63-4.89,1.63s-3.24-.51-4.35-1.53c-1.08-.99-1.62-2.28-1.62-3.86,0-1.77.66-3.21,1.98-4.33,1.38-1.18,3.05-1.78,5.02-1.78,1.37,0,2.57.36,3.6,1.07.74.51,1.34,1.17,1.79,1.99.46.85.7,1.75.7,2.67Zm-5.09,1.75c0-.63-.08-1.34-.25-2.15-.17-.8-.37-1.45-.61-1.95-.25-.51-.59-.77-1.03-.79-.33,0-.59.12-.79.37-.2.24-.3.57-.3.97,0,.45.08,1.06.25,1.84.17.77.37,1.46.6,2.06.23.61.61.92,1.13.92.67,0,1-.42,1-1.27Zm6.94-5.04c.31.17.52.41.63.71.12.3.17.78.17,1.42v.52c0,.43-.01.96-.01,1.57,0,1.65.25,2.82.75,3.52.59.83,1.61,1.25,3.04,1.25.87,0,1.68-.26,2.44-.78.38-.26.61-.41.69-.45s.16-.06.25-.06c.25,0,.39.23.43.7.02.24.1.4.23.48.13.08.38.12.74.12.88,0,1.78-.11,2.72-.33,1.59-.37,2.39-.89,2.39-1.56,0-.34-.18-.61-.55-.79-.43-.21-.65-.44-.65-.7v-4.95c0-.52.02-.96.03-1.31,0-.25.01-.42.01-.5,0-.8-.38-1.2-1.13-1.2-1.35,0-2.73.17-4.12.52-.73.18-1.1.5-1.1.96,0,.34.21.63.64.85.21.11.35.21.43.3s.13.22.16.41c.08.45.12,1.29.12,2.52s-.08,2.04-.25,2.4c-.08.18-.23.33-.44.46-.21.12-.42.19-.64.19-.86,0-1.29-.65-1.29-1.96v-6.09c0-.38-.22-.56-.66-.56-1.47,0-2.94.16-4.4.48-.86.19-1.29.57-1.29,1.13,0,.16.04.28.12.37.08.09.26.21.56.36Zm29.02-.53c.55-.17.82-.45.82-.83,0-.66-.76-.99-2.29-.99-1.09,0-1.87.08-2.34.24-.48.16-.71.42-.71.78,0,.23.13.48.38.75.24.25.36.46.36.64,0,.22-.12.55-.35.99-.31.59-.53.96-.65,1.1-.12.14-.27.21-.46.21-.28,0-.59-.29-.92-.86-.33-.59-.49-1.01-.49-1.27,0-.13.03-.23.08-.31s.17-.21.35-.37c.28-.25.43-.5.43-.77,0-.38-.3-.66-.9-.85-.6-.18-1.54-.28-2.81-.28-1.52,0-2.63.1-3.34.31s-1.06.54-1.06,1,.28.76.85.92c.28.07.51.18.67.33.16.15.33.38.5.71l3.19,6.05c.34.64.75,1.22,1.2,1.73.22.25.5.38.85.38s.7-.17,1.01-.51.7-.95,1.15-1.82l2.91-5.66c.32-.63.56-1.02.71-1.18.15-.16.44-.3.87-.44Zm1.56,6.59c-.44-.85-.66-1.74-.66-2.67,0-1.26.38-2.39,1.15-3.39.66-.87,1.5-1.52,2.52-1.94.76-.32,1.59-.48,2.48-.48,1.42,0,2.63.4,3.63,1.21.5.4.91.88,1.21,1.44.35.63.53,1.24.53,1.84,0,.49-.1.89-.3,1.2s-.46.47-.79.47h-5.28c-.23,0-.35.1-.35.3,0,.49.26.95.79,1.38.53.43,1.1.65,1.7.65.36,0,.76-.07,1.2-.21.44-.14.8-.31,1.08-.51.25-.18.46-.27.61-.27.19,0,.39.12.57.36.19.24.28.49.28.74,0,.54-.34,1.06-1.01,1.56-1.19.89-2.56,1.34-4.12,1.34s-2.89-.46-3.95-1.37c-.52-.45-.94-.99-1.28-1.63Zm4.04-5.04c0,.22.05.38.16.47.11.09.3.13.57.13h1.13c.48,0,.72-.22.72-.66,0-.4-.12-.73-.35-.99s-.54-.38-.91-.38c-.42,0-.75.17-.99.49-.22.31-.34.62-.34.93Zm16.21,6.48c0-.5-.34-.85-1.01-1.06-.31-.09-.51-.18-.6-.26-.09-.09-.17-.24-.22-.47-.08-.41-.12-1.18-.12-2.31,0-.76.03-1.25.1-1.49.06-.24.2-.35.41-.35.13,0,.28.08.44.24.42.41.76.69,1.02.82.26.13.58.2.96.2.7,0,1.28-.23,1.76-.68.26-.24.48-.54.64-.92.16-.37.25-.73.25-1.08,0-.31-.07-.64-.2-.98s-.31-.62-.52-.84c-.43-.44-.99-.66-1.67-.66-.97,0-1.75.47-2.35,1.4-.13.22-.28.33-.43.33-.19,0-.31-.17-.35-.49-.07-.61-.14-.97-.23-1.08-.09-.11-.33-.17-.72-.17-.81,0-1.79.18-2.94.53-.86.25-1.48.51-1.84.77-.37.26-.55.57-.55.93,0,.4.27.7.8.91.22.09.37.21.45.35.07.15.11.39.11.72,0,1.84-.06,3.1-.18,3.78-.03.2-.09.36-.17.48s-.23.25-.45.39c-.45.31-.67.66-.67,1.04,0,.52.31.88.92,1.09.69.23,1.7.35,3.02.35,1.39,0,2.45-.08,3.17-.22.36-.08.65-.23.86-.46s.33-.5.33-.8Zm14.95-1.84c-.15-.22-.31-.33-.49-.33-.11,0-.22.03-.34.1-.48.27-.86.4-1.16.4-.34,0-.63-.14-.85-.43-.22-.28-.33-.65-.33-1.1v-3.8c0-.21.04-.35.11-.43s.22-.11.43-.11h2.03c.28,0,.47-.07.57-.21s.16-.39.16-.75v-.66c0-.33-.04-.54-.12-.65-.08-.1-.26-.15-.54-.15h-2.08c-.23,0-.38-.03-.46-.1-.07-.07-.11-.21-.11-.44v-1.52c0-.25-.03-.42-.1-.51-.06-.09-.19-.13-.38-.13h-.91c-.19,0-.34.03-.47.1l-5.14,3.23c-.16.1-.25.27-.26.49v.49c0,.26.03.43.09.5s.2.11.42.11h1.16c.17,0,.28.02.32.06.04.04.06.15.06.32v5.19c0,1.11.36,2,1.09,2.68s1.69,1.02,2.89,1.02c1.51,0,2.8-.45,3.86-1.36.51-.43.76-.87.76-1.34,0-.25-.07-.49-.22-.71Zm9.82,2.03c.25,0,.39.23.43.7.02.24.1.4.23.48.13.08.38.12.74.12.88,0,1.78-.11,2.72-.33,1.59-.37,2.39-.89,2.39-1.56,0-.34-.18-.61-.55-.79-.43-.21-.65-.44-.65-.7v-4.95c0-.52.02-.96.03-1.31,0-.25.01-.42.01-.5,0-.8-.38-1.2-1.13-1.2-1.35,0-2.73.17-4.12.52-.73.18-1.1.5-1.1.96,0,.34.21.63.64.85.21.11.35.21.43.3s.13.22.16.41c.08.45.12,1.29.12,2.52s-.08,2.04-.25,2.4c-.08.18-.23.33-.44.46-.21.12-.42.19-.64.19-.86,0-1.29-.65-1.29-1.96v-6.09c0-.38-.22-.56-.66-.56-1.47,0-2.94.16-4.4.48-.86.19-1.29.57-1.29,1.13,0,.16.04.28.12.37.08.09.26.21.56.36.31.17.52.41.63.71.12.3.17.78.17,1.42v.52c0,.43-.01.96-.01,1.57,0,1.65.25,2.82.75,3.52.59.83,1.61,1.25,3.04,1.25.87,0,1.68-.26,2.44-.78.38-.26.61-.41.69-.45s.16-.06.25-.06Zm8.65-1.58c-.08.12-.23.25-.45.39-.45.31-.67.66-.67,1.04,0,.52.31.88.92,1.09.69.23,1.7.35,3.02.35,1.39,0,2.45-.08,3.17-.22.36-.08.65-.23.86-.46s.33-.5.33-.8c0-.5-.34-.85-1.01-1.06-.31-.09-.51-.18-.6-.26-.09-.09-.17-.24-.22-.47-.08-.41-.12-1.18-.12-2.31,0-.76.03-1.25.1-1.49.06-.24.2-.35.41-.35.13,0,.28.08.44.24.42.41.76.69,1.02.82.26.13.58.2.96.2.7,0,1.28-.23,1.76-.68.26-.24.48-.54.64-.92.16-.37.25-.73.25-1.08,0-.31-.07-.64-.2-.98s-.31-.62-.52-.84c-.43-.44-.99-.66-1.67-.66-.97,0-1.75.47-2.35,1.4-.13.22-.28.33-.43.33-.19,0-.31-.17-.35-.49-.07-.61-.14-.97-.23-1.08-.09-.11-.33-.17-.72-.17-.81,0-1.79.18-2.94.53-.86.25-1.48.51-1.84.77-.37.26-.55.57-.55.93,0,.4.27.7.8.91.22.09.37.21.45.35.07.15.11.39.11.72,0,1.84-.06,3.1-.18,3.78-.03.2-.09.36-.17.48Zm21.68,1.61c-1.19.89-2.56,1.34-4.12,1.34s-2.89-.46-3.95-1.37c-.52-.45-.94-.99-1.28-1.63-.44-.85-.66-1.74-.66-2.67,0-1.26.38-2.39,1.15-3.39.66-.87,1.5-1.52,2.52-1.94.76-.32,1.59-.48,2.48-.48,1.42,0,2.63.4,3.63,1.21.5.4.91.88,1.21,1.44.35.63.53,1.24.53,1.84,0,.49-.1.89-.3,1.2s-.46.47-.79.47h-5.28c-.23,0-.35.1-.35.3,0,.49.26.95.79,1.38.53.43,1.1.65,1.7.65.36,0,.76-.07,1.2-.21.44-.14.8-.31,1.08-.51.25-.18.46-.27.61-.27.19,0,.39.12.57.36.19.24.28.49.28.74,0,.54-.34,1.06-1.01,1.56Zm-5.31-6.71c0,.22.05.38.16.47.11.09.3.13.57.13h1.13c.48,0,.72-.22.72-.66,0-.4-.12-.73-.35-.99s-.54-.38-.91-.38c-.42,0-.75.17-.99.49-.22.31-.34.62-.34.93Zm16.38,6.75c-.55-.52-.99-1.11-1.33-1.79-.45-.88-.67-1.76-.67-2.66,0-1.06.29-2.07.88-3.05.54-.91,1.27-1.6,2.2-2.09.78-.4,1.55-.61,2.3-.61.87,0,1.65.19,2.34.58.11.06.2.09.27.09.24,0,.36-.32.36-.97,0-.28-.07-.49-.2-.63-.13-.15-.37-.27-.7-.38-.47-.15-.71-.41-.71-.79,0-.55.54-.97,1.63-1.28,1.92-.53,3.2-.8,3.85-.8s.97.31.97.92v10.25c0,.58.02.96.07,1.12.05.17.19.33.41.48.27.19.45.35.54.49.09.14.14.31.14.52,0,.6-.6,1.05-1.81,1.37-1.09.28-2.17.42-3.26.42-.24,0-.4-.04-.47-.11-.07-.07-.12-.24-.14-.51-.04-.38-.17-.57-.4-.57-.13,0-.33.11-.6.34-.76.62-1.61.93-2.55.93-1.16,0-2.21-.43-3.13-1.29Zm3.36-4.3c0,1.02.18,1.79.55,2.3.26.37.62.56,1.07.56.49,0,.84-.28,1.06-.85.22-.57.33-1.48.33-2.73,0-1.15-.13-1.92-.39-2.3-.2-.3-.5-.46-.89-.47-.49,0-.87.26-1.16.77-.38.69-.57,1.6-.57,2.72Zm20.21,4.26c-1.19.89-2.56,1.34-4.12,1.34s-2.89-.46-3.95-1.37c-.52-.45-.94-.99-1.28-1.63-.44-.85-.66-1.74-.66-2.67,0-1.26.38-2.39,1.15-3.39.66-.87,1.5-1.52,2.52-1.94.76-.32,1.59-.48,2.48-.48,1.42,0,2.63.4,3.63,1.21.5.4.91.88,1.21,1.44.35.63.53,1.24.53,1.84,0,.49-.1.89-.3,1.2s-.46.47-.79.47h-5.28c-.23,0-.35.1-.35.3,0,.49.26.95.79,1.38.53.43,1.1.65,1.7.65.36,0,.76-.07,1.2-.21.44-.14.8-.31,1.08-.51.25-.18.46-.27.61-.27.19,0,.39.12.57.36.19.24.28.49.28.74,0,.54-.34,1.06-1.01,1.56Zm-5.31-6.71c0,.22.05.38.16.47.11.09.3.13.57.13h1.13c.48,0,.72-.22.72-.66,0-.4-.12-.73-.35-.99s-.54-.38-.91-.38c-.42,0-.75.17-.99.49-.22.31-.34.62-.34.93Zm15.04-4.12c.42.25.68.64.79,1.17s.16,1.7.16,3.53-.06,3.18-.18,4.16c-.07.57-.25.92-.54,1.04-.31.13-.52.25-.61.35-.09.1-.14.24-.14.42,0,.22.09.44.26.65s.39.36.66.45c.58.22,1.6.33,3.04.33,1.28,0,2.19-.08,2.73-.25.29-.08.53-.22.7-.43.18-.2.26-.43.26-.67,0-.19-.05-.34-.14-.45-.09-.1-.28-.22-.56-.34-.32-.14-.51-.34-.56-.61-.05-.26-.07-1.19-.07-2.79v-3.61c.02-1.12.07-2.34.17-3.68.07-.86.11-1.41.11-1.65,0-.73-.3-1.1-.89-1.1-.37,0-.97.07-1.8.21-.82.14-1.49.29-2.01.45-.77.23-1.33.48-1.68.76s-.53.59-.53.96c0,.23.06.43.17.59.12.16.33.33.65.51Zm8.86,3.86c.37.17.58.4.63.71.02.11.04.51.07,1.19.03.68.05,1.14.05,1.39,0,.77-.05,1.35-.15,1.74-.1.39-.26.67-.49.84-.34.25-.55.43-.63.54s-.12.27-.12.47c0,.24.08.45.24.64.16.19.37.32.63.39.77.21,1.82.31,3.13.31,2.45,0,3.67-.48,3.67-1.45,0-.18-.04-.33-.12-.44-.08-.12-.23-.26-.47-.42-.28-.2-.47-.42-.57-.66-.09-.24-.14-.62-.14-1.13v-6.52c0-.46-.21-.7-.62-.7-.52,0-1.27.11-2.22.34s-1.86.5-2.7.82c-.61.23-.91.58-.91,1.06,0,.4.23.7.7.9Zm.17-4.13c.32.21.76.31,1.3.31,1.3,0,2.4-.27,3.31-.8.58-.34.86-.79.86-1.37,0-.41-.19-.74-.57-.98s-.9-.37-1.55-.37c-.82,0-1.69.19-2.63.56-.92.37-1.38.87-1.38,1.52,0,.48.22.85.65,1.12Zm19.97,1.02c-1.09,0-1.87.08-2.34.24-.48.16-.71.42-.71.78,0,.23.13.48.38.75.24.25.36.46.36.64,0,.22-.12.55-.35.99-.31.59-.53.96-.65,1.1-.12.14-.27.21-.46.21-.28,0-.59-.29-.92-.86-.33-.59-.49-1.01-.49-1.27,0-.13.03-.23.08-.31s.17-.21.35-.37c.28-.25.43-.5.43-.77,0-.38-.3-.66-.9-.85-.6-.18-1.54-.28-2.81-.28-1.52,0-2.63.1-3.34.31s-1.06.54-1.06,1,.28.76.85.92c.28.07.51.18.67.33.16.15.33.38.5.71l3.19,6.05c.34.64.75,1.22,1.2,1.73.22.25.5.38.85.38s.7-.17,1.01-.51.7-.95,1.15-1.82l2.91-5.66c.32-.63.56-1.02.71-1.18.15-.16.44-.3.87-.44.55-.17.82-.45.82-.83,0-.66-.76-.99-2.29-.99Zm14.14.66c-.43-.44-.99-.66-1.67-.66-.97,0-1.75.47-2.35,1.4-.13.22-.28.33-.43.33-.19,0-.31-.17-.35-.49-.07-.61-.14-.97-.23-1.08-.09-.11-.33-.17-.72-.17-.81,0-1.79.18-2.94.53-.86.25-1.48.51-1.84.77-.37.26-.55.57-.55.93,0,.4.27.7.8.91.22.09.37.21.45.35.07.15.11.39.11.72,0,1.84-.06,3.1-.18,3.78-.03.2-.09.36-.17.48s-.23.25-.45.39c-.45.31-.67.66-.67,1.04,0,.52.31.88.92,1.09.69.23,1.7.35,3.02.35,1.39,0,2.45-.08,3.17-.22.36-.08.65-.23.86-.46s.33-.5.33-.8c0-.5-.34-.85-1.01-1.06-.31-.09-.51-.18-.6-.26-.09-.09-.17-.24-.22-.47-.08-.41-.12-1.18-.12-2.31,0-.76.03-1.25.1-1.49.06-.24.2-.35.41-.35.13,0,.28.08.44.24.42.41.76.69,1.02.82.26.13.58.2.96.2.7,0,1.28-.23,1.76-.68.26-.24.48-.54.64-.92.16-.37.25-.73.25-1.08,0-.31-.07-.64-.2-.98s-.31-.62-.52-.84Zm13.1,3.75c0,.49-.1.89-.3,1.2s-.46.47-.79.47h-5.28c-.23,0-.35.1-.35.3,0,.49.26.95.79,1.38.53.43,1.1.65,1.7.65.36,0,.76-.07,1.2-.21.44-.14.8-.31,1.08-.51.25-.18.46-.27.61-.27.19,0,.39.12.57.36.19.24.28.49.28.74,0,.54-.34,1.06-1.01,1.56-1.19.89-2.56,1.34-4.12,1.34s-2.89-.46-3.95-1.37c-.52-.45-.94-.99-1.28-1.63-.44-.85-.66-1.74-.66-2.67,0-1.26.38-2.39,1.15-3.39.66-.87,1.5-1.52,2.52-1.94.76-.32,1.59-.48,2.48-.48,1.42,0,2.63.4,3.63,1.21.5.4.91.88,1.21,1.44.35.63.53,1.24.53,1.84Zm-4.22-1.1c0-.4-.12-.73-.35-.99s-.54-.38-.91-.38c-.42,0-.75.17-.99.49-.22.31-.34.62-.34.93,0,.22.05.38.16.47.11.09.3.13.57.13h1.13c.48,0,.72-.22.72-.66Zm-190.76,32.97c-.08-.14-.12-.36-.14-.66l-.16-3.95c-.04-.92-.16-1.62-.35-2.09s-.52-.89-.99-1.24c-.67-.49-1.48-.74-2.43-.74-1.23,0-2.16.46-2.81,1.39-.2.28-.39.43-.57.43-.3,0-.45-.18-.45-.54,0-.04,0-.1.01-.16,0-.17.01-.26.01-.28,0-.22-.08-.42-.23-.58-.15-.17-.34-.25-.57-.25-.25,0-.7.09-1.37.26s-1.36.39-2.08.65c-.82.29-1.35.53-1.62.72-.26.19-.39.44-.39.74s.16.54.48.74c.37.23.6.43.68.59.08.16.12.5.12,1.02,0,.94-.03,1.83-.08,2.68-.04.72-.09,1.17-.15,1.35s-.18.35-.37.49c-.24.17-.39.3-.45.4-.06.09-.1.23-.1.41,0,.86,1.04,1.29,3.12,1.29,1.3,0,2.26-.11,2.88-.31.61-.21.92-.54.92-.98,0-.17-.04-.33-.12-.46-.31-.47-.5-.79-.56-.96-.06-.17-.08-.47-.08-.91v-2.22c0-.85.09-1.43.28-1.75.19-.32.53-.48,1.03-.48s.88.2,1.08.59c.24.49.36,1.26.36,2.29,0,1.78-.15,2.83-.45,3.14-.25.28-.4.45-.45.52s-.07.18-.07.33c0,.42.22.72.66.91.43.18,1.16.27,2.19.27,1.52,0,2.58-.1,3.17-.29s.89-.54.89-1.03c0-.22-.06-.39-.17-.5-.38-.4-.61-.68-.69-.82Zm14.43-5.72c.46.85.7,1.75.7,2.67,0,1.62-.75,3.01-2.23,4.14-1.42,1.09-3.05,1.63-4.89,1.63s-3.24-.51-4.35-1.53c-1.08-.99-1.62-2.28-1.62-3.86,0-1.77.66-3.21,1.98-4.33,1.38-1.18,3.05-1.78,5.02-1.78,1.37,0,2.57.36,3.6,1.07.74.51,1.34,1.17,1.79,1.99Zm-4.39,4.43c0-.63-.08-1.34-.25-2.15-.17-.8-.37-1.45-.61-1.95-.25-.51-.59-.77-1.03-.79-.33,0-.59.12-.79.37-.2.24-.3.57-.3.97,0,.45.08,1.06.25,1.84.17.77.37,1.46.6,2.06.23.61.61.92,1.13.92.67,0,1-.42,1-1.27Zm20.39,1.29c-.08-.14-.12-.36-.14-.66l-.16-3.95c-.04-.92-.16-1.62-.35-2.09s-.52-.89-.99-1.24c-.67-.49-1.48-.74-2.43-.74-1.23,0-2.16.46-2.81,1.39-.2.28-.39.43-.57.43-.3,0-.45-.18-.45-.54,0-.04,0-.1.01-.16,0-.17.01-.26.01-.28,0-.22-.08-.42-.23-.58-.15-.17-.34-.25-.57-.25-.25,0-.7.09-1.37.26s-1.36.39-2.08.65c-.82.29-1.35.53-1.62.72-.26.19-.39.44-.39.74s.16.54.48.74c.37.23.6.43.68.59.08.16.12.5.12,1.02,0,.94-.03,1.83-.08,2.68-.04.72-.09,1.17-.15,1.35s-.18.35-.37.49c-.24.17-.39.3-.45.4-.06.09-.1.23-.1.41,0,.86,1.04,1.29,3.12,1.29,1.3,0,2.26-.11,2.88-.31.61-.21.92-.54.92-.98,0-.17-.04-.33-.12-.46-.31-.47-.5-.79-.56-.96-.06-.17-.08-.47-.08-.91v-2.22c0-.85.09-1.43.28-1.75.19-.32.53-.48,1.03-.48s.88.2,1.08.59c.24.49.36,1.26.36,2.29,0,1.78-.15,2.83-.45,3.14-.25.28-.4.45-.45.52s-.07.18-.07.33c0,.42.22.72.66.91.43.18,1.16.27,2.19.27,1.52,0,2.58-.1,3.17-.29s.89-.54.89-1.03c0-.22-.06-.39-.17-.5-.38-.4-.61-.68-.69-.82Zm22.57.35c.09.14.14.31.14.52,0,.6-.6,1.05-1.81,1.37-1.09.28-2.17.42-3.26.42-.24,0-.4-.04-.47-.11-.07-.07-.12-.24-.14-.51-.04-.38-.17-.57-.4-.57-.13,0-.33.11-.6.34-.76.62-1.61.93-2.55.93-1.16,0-2.21-.43-3.13-1.29-.55-.52-.99-1.11-1.33-1.79-.45-.88-.67-1.76-.67-2.66,0-1.06.29-2.07.88-3.05.54-.91,1.27-1.6,2.2-2.09.78-.4,1.55-.61,2.3-.61.87,0,1.65.19,2.34.58.11.06.2.09.27.09.24,0,.36-.32.36-.97,0-.28-.07-.49-.2-.63-.13-.15-.37-.27-.7-.38-.47-.15-.71-.41-.71-.79,0-.55.54-.97,1.63-1.28,1.92-.53,3.2-.8,3.85-.8s.97.31.97.92v10.25c0,.58.02.96.07,1.12.05.17.19.33.41.48.27.19.45.35.54.49Zm-5.85-3.93c0-1.15-.13-1.92-.39-2.3-.2-.3-.5-.46-.89-.47-.49,0-.87.26-1.16.77-.38.69-.57,1.6-.57,2.72,0,1.02.18,1.79.55,2.3.26.37.62.56,1.07.56.49,0,.84-.28,1.06-.85.22-.57.33-1.48.33-2.73Zm14.18,3.92c-.28-.2-.47-.42-.57-.66-.09-.24-.14-.62-.14-1.13v-6.52c0-.46-.21-.7-.62-.7-.52,0-1.27.11-2.22.34s-1.86.5-2.7.82c-.61.23-.91.58-.91,1.06,0,.4.23.7.7.9.37.17.58.4.63.71.02.11.04.51.07,1.19.03.68.05,1.14.05,1.39,0,.77-.05,1.35-.15,1.74-.1.39-.26.67-.49.84-.34.25-.55.43-.63.54s-.12.27-.12.47c0,.24.08.45.24.64.16.19.37.32.63.39.77.21,1.82.31,3.13.31,2.45,0,3.67-.48,3.67-1.45,0-.18-.04-.33-.12-.44-.08-.12-.23-.26-.47-.42Zm-6.29-10.04c.32.21.76.31,1.3.31,1.3,0,2.4-.27,3.31-.8.58-.34.86-.79.86-1.37,0-.41-.19-.74-.57-.98s-.9-.37-1.55-.37c-.82,0-1.69.19-2.63.56-.92.37-1.38.87-1.38,1.52,0,.48.22.85.65,1.12Zm14.34,4.96c-.7-.32-1.06-.67-1.06-1.03,0-.21.08-.39.23-.54.15-.15.34-.23.54-.23.31,0,.71.23,1.19.7.46.43.79.72.99.84.21.13.44.19.7.19.31,0,.58-.1.79-.3s.31-.45.31-.75-.09-.67-.27-1.09c-.18-.42-.41-.81-.7-1.16-.35-.44-.7-.66-1.04-.66-.12,0-.27.03-.44.1-.37.13-.61.2-.74.2-.11,0-.25-.01-.43-.04-.85-.17-1.46-.25-1.83-.25-1.35,0-2.41.46-3.19,1.38-.55.64-.82,1.41-.82,2.3,0,.82.27,1.55.8,2.18.54.63,1.41,1.24,2.61,1.83.58.28.86.58.86.92,0,.22-.07.39-.22.52s-.35.2-.6.2c-.23,0-.45-.06-.65-.18-.2-.12-.46-.35-.76-.68-.56-.6-.93-.97-1.11-1.11-.18-.14-.37-.21-.58-.21-.54,0-.81.34-.81,1.03,0,.43.13.94.39,1.53.26.6.55,1.03.85,1.31.2.18.48.27.83.27.1,0,.25-.01.47-.04.13-.02.24-.03.34-.03.09,0,.5.04,1.22.12.77.1,1.3.15,1.59.15,1.14,0,2.1-.3,2.89-.91.91-.7,1.37-1.56,1.37-2.61,0-.82-.28-1.52-.85-2.09-.67-.67-1.64-1.29-2.91-1.86Zm19.31-1.15c.33.8.49,1.64.49,2.53,0,1.89-.64,3.44-1.91,4.66-.98.95-2.1,1.43-3.35,1.43-.64,0-1.29-.15-1.97-.45-.13-.06-.24-.09-.33-.09-.22,0-.34.22-.34.67,0,.59.2,1.02.6,1.28.37.25.59.41.66.5.07.09.11.23.11.43,0,.45-.25.8-.75,1.04s-1.21.37-2.12.37c-1.62,0-3.05-.33-4.27-.98-.62-.33-.93-.74-.93-1.22,0-.22.05-.4.14-.51.09-.12.28-.24.54-.37.39-.18.63-.5.71-.98.09-.47.15-1.83.2-4.07-.05-1.84-.12-2.88-.2-3.1-.03-.08-.07-.12-.13-.15-.06-.02-.24-.06-.56-.12-.24-.04-.43-.16-.58-.33s-.22-.39-.22-.63c0-.3.1-.56.31-.79s.55-.45,1.02-.67c1.83-.83,3.29-1.25,4.37-1.27.46,0,.74.04.85.12.11.08.17.28.17.59,0,.28.09.42.27.42.07,0,.33-.14.75-.43.32-.22.73-.4,1.23-.54.5-.15.95-.22,1.35-.22.95,0,1.8.33,2.55.99.57.5,1.01,1.13,1.33,1.9Zm-4.91,3.11c0-1.1-.22-1.88-.65-2.33-.27-.28-.59-.42-.97-.42-.53,0-.82.35-.86,1.05l-.17,3.09c0,.13-.01.25-.01.37,0,.23.1.42.3.56.2.14.47.21.81.21,1.03,0,1.55-.85,1.55-2.55Zm19.13-2.94c.46.85.7,1.75.7,2.67,0,1.62-.75,3.01-2.23,4.14-1.42,1.09-3.05,1.63-4.89,1.63s-3.24-.51-4.35-1.53c-1.08-.99-1.62-2.28-1.62-3.86,0-1.77.66-3.21,1.98-4.33,1.38-1.18,3.05-1.78,5.02-1.78,1.37,0,2.57.36,3.6,1.07.74.51,1.34,1.17,1.79,1.99Zm-4.39,4.43c0-.63-.08-1.34-.25-2.15-.17-.8-.37-1.45-.61-1.95-.25-.51-.59-.77-1.03-.79-.33,0-.59.12-.79.37-.2.24-.3.57-.3.97,0,.45.08,1.06.25,1.84.17.77.37,1.46.6,2.06.23.61.61.92,1.13.92.67,0,1-.42,1-1.27Zm20.39,1.29c-.08-.14-.12-.36-.14-.66l-.16-3.95c-.04-.92-.16-1.62-.35-2.09s-.52-.89-.99-1.24c-.67-.49-1.48-.74-2.43-.74-1.23,0-2.16.46-2.81,1.39-.2.28-.39.43-.57.43-.3,0-.45-.18-.45-.54,0-.04,0-.1.01-.16,0-.17.01-.26.01-.28,0-.22-.08-.42-.23-.58-.15-.17-.34-.25-.57-.25-.25,0-.7.09-1.37.26s-1.36.39-2.08.65c-.82.29-1.35.53-1.62.72-.26.19-.39.44-.39.74s.16.54.48.74c.37.23.6.43.68.59.08.16.12.5.12,1.02,0,.94-.03,1.83-.08,2.68-.04.72-.09,1.17-.15,1.35s-.18.35-.37.49c-.24.17-.39.3-.45.4-.06.09-.1.23-.1.41,0,.86,1.04,1.29,3.12,1.29,1.3,0,2.26-.11,2.88-.31.61-.21.92-.54.92-.98,0-.17-.04-.33-.12-.46-.31-.47-.5-.79-.56-.96-.06-.17-.08-.47-.08-.91v-2.22c0-.85.09-1.43.28-1.75.19-.32.53-.48,1.03-.48s.88.2,1.08.59c.24.49.36,1.26.36,2.29,0,1.78-.15,2.83-.45,3.14-.25.28-.4.45-.45.52s-.07.18-.07.33c0,.42.22.72.66.91.43.18,1.16.27,2.19.27,1.52,0,2.58-.1,3.17-.29s.89-.54.89-1.03c0-.22-.06-.39-.17-.5-.38-.4-.61-.68-.69-.82Zm9.04.34c-.28-.2-.47-.42-.57-.66-.09-.24-.14-.62-.14-1.13v-6.52c0-.46-.21-.7-.62-.7-.52,0-1.27.11-2.22.34s-1.86.5-2.7.82c-.61.23-.91.58-.91,1.06,0,.4.23.7.7.9.37.17.58.4.63.71.02.11.04.51.07,1.19.03.68.05,1.14.05,1.39,0,.77-.05,1.35-.15,1.74-.1.39-.26.67-.49.84-.34.25-.55.43-.63.54s-.12.27-.12.47c0,.24.08.45.24.64.16.19.37.32.63.39.77.21,1.82.31,3.13.31,2.45,0,3.67-.48,3.67-1.45,0-.18-.04-.33-.12-.44-.08-.12-.23-.26-.47-.42Zm-6.29-10.04c.32.21.76.31,1.3.31,1.3,0,2.4-.27,3.31-.8.58-.34.86-.79.86-1.37,0-.41-.19-.74-.57-.98s-.9-.37-1.55-.37c-.82,0-1.69.19-2.63.56-.92.37-1.38.87-1.38,1.52,0,.48.22.85.65,1.12Zm20.34,2.08c1,.95,1.5,2.19,1.5,3.72,0,2.18-.81,3.92-2.44,5.22-1.17.94-2.54,1.41-4.11,1.41-.78,0-1.48-.1-2.11-.3-.63-.2-1.31-.54-2.05-1.02-.11-.07-.2-.1-.27-.1-.08,0-.31.07-.7.21-.19.08-.42.11-.69.11-.46,0-.7-.15-.7-.45,0-.1.02-.21.06-.34.15-.49.25-1.09.3-1.81s.08-1.86.08-3.41v-3.1c0-.77-.03-1.25-.09-1.45s-.23-.35-.51-.46c-.39-.17-.66-.33-.81-.49s-.22-.36-.22-.61c0-.5.54-.99,1.61-1.47.58-.25,1.31-.48,2.18-.67.87-.19,1.62-.29,2.24-.29.4,0,.59.22.58.67l-.15,4.38v.25c0,.15.05.22.15.22.05,0,.2-.1.45-.3.88-.72,1.84-1.08,2.9-1.08s1.97.38,2.77,1.13Zm-3.44,5.64c0-1.3-.24-2.25-.72-2.85-.28-.34-.61-.52-1-.54-.4,0-.7.14-.88.42-.14.21-.21.64-.21,1.28,0,1.76.06,2.95.18,3.56.1.57.42.85.95.85s.96-.23,1.25-.7c.28-.46.43-1.14.43-2.02Zm13.37,2.5c-.32-.14-.51-.34-.56-.61-.05-.26-.07-1.19-.07-2.79v-3.61c.02-1.12.07-2.34.17-3.68.07-.86.11-1.41.11-1.65,0-.73-.3-1.1-.89-1.1-.37,0-.97.07-1.8.21-.82.14-1.49.29-2.01.45-.77.23-1.33.48-1.68.76s-.53.59-.53.96c0,.23.06.43.17.59.12.16.33.33.65.51.42.25.68.64.79,1.17s.16,1.7.16,3.53-.06,3.18-.18,4.16c-.07.57-.25.92-.54,1.04-.31.13-.52.25-.61.35-.09.1-.14.24-.14.42,0,.22.09.44.26.65s.39.36.66.45c.58.22,1.6.33,3.04.33,1.28,0,2.19-.08,2.73-.25.29-.08.53-.22.7-.43.18-.2.26-.43.26-.67,0-.19-.05-.34-.14-.45-.09-.1-.28-.22-.56-.34Zm12.87-6.63c.35.63.53,1.24.53,1.84,0,.49-.1.89-.3,1.2s-.46.47-.79.47h-5.28c-.23,0-.35.1-.35.3,0,.49.26.95.79,1.38.53.43,1.1.65,1.7.65.36,0,.76-.07,1.2-.21.44-.14.8-.31,1.08-.51.25-.18.46-.27.61-.27.19,0,.39.12.57.36.19.24.28.49.28.74,0,.54-.34,1.06-1.01,1.56-1.19.89-2.56,1.34-4.12,1.34s-2.89-.46-3.95-1.37c-.52-.45-.94-.99-1.28-1.63-.44-.85-.66-1.74-.66-2.67,0-1.26.38-2.39,1.15-3.39.66-.87,1.5-1.52,2.52-1.94.76-.32,1.59-.48,2.48-.48,1.42,0,2.63.4,3.63,1.21.5.4.91.88,1.21,1.44Zm-3.69.74c0-.4-.12-.73-.35-.99s-.54-.38-.91-.38c-.42,0-.75.17-.99.49-.22.31-.34.62-.34.93,0,.22.05.38.16.47.11.09.3.13.57.13h1.13c.48,0,.72-.22.72-.66Z"/></g></svg>